HIERARCHY
ROOT SpineBase
{
  OFFSET 0.000000 0.000000 0.000000
  CHANNELS 6 Xposition Yposition Zposition Zrotation Xrotation Yrotation
  JOINT SpineMid
  {
    OFFSET -0.000000 28.644378 0.000000
    CHANNELS 3 Zrotation Xrotation Yrotation
    JOINT SpineShoulder
    {
      OFFSET 0.042029 21.276412 -0.778995
      CHANNELS 3 Zrotation Xrotation Yrotation
      JOINT Neck
      {
        OFFSET 0.042374 7.043762 -0.553575
        CHANNELS 3 Zrotation Xrotation Yrotation
        JOINT Head
        {
          OFFSET 3.075501 11.662715 3.522322
          CHANNELS 3 Zrotation Xrotation Yrotation
          End Site
          {
            OFFSET 0 0 0
          }
        }
      }
      JOINT ShoulderLeft
      {
        OFFSET -5.421703 -4.223709 -13.068963
        CHANNELS 3 Zrotation Xrotation Yrotation
        JOINT ElbowLeft
        {
          OFFSET -4.586538 -20.975853 -4.820364
          CHANNELS 3 Zrotation Xrotation Yrotation
          JOINT WristLeft
          {
            OFFSET 4.252783 -21.071797 -1.699940
            CHANNELS 3 Zrotation Xrotation Yrotation
            JOINT HandLeft
            {
              OFFSET 0.194542 -6.968690 0.274449
              CHANNELS 3 Zrotation Xrotation Yrotation
              JOINT HandTipLeft
              {
                OFFSET 0.479882 -6.754871 -0.670335
                CHANNELS 3 Zrotation Xrotation Yrotation
                End Site
                {
                  OFFSET 0 0 0
                }
              }
              JOINT ThumbLeft
              {
                OFFSET -2.011070 0.724723 -0.603982
                CHANNELS 3 Zrotation Xrotation Yrotation
                End Site
                {
                  OFFSET 0 0 0
                }
              }
            }
          }
        }
      }
      JOINT ShoulderRight
      {
        OFFSET 10.362544 -3.998405 7.719378
        CHANNELS 3 Zrotation Xrotation Yrotation
        JOINT ElbowRight
        {
          OFFSET 1.199580 -23.886870 5.701209
          CHANNELS 3 Zrotation Xrotation Yrotation
          JOINT WristRight
          {
            OFFSET 0.590632 -25.378431 2.019078
            CHANNELS 3 Zrotation Xrotation Yrotation
            JOINT HandRight
            {
              OFFSET -0.452480 -5.044397 -0.079124
              CHANNELS 3 Zrotation Xrotation Yrotation
              JOINT HandTipRight
              {
                OFFSET -0.769351 -4.667049 -0.625006
                CHANNELS 3 Zrotation Xrotation Yrotation
                End Site
                {
                  OFFSET 0 0 0
                }
              }
              JOINT ThumbRight
              {
                OFFSET 1.774265 0.427761 -0.909753
                CHANNELS 3 Zrotation Xrotation Yrotation
                End Site
                {
                  OFFSET 0 0 0
                }
              }
            }
          }
        }
      }
    }
  }
  JOINT HipLeft
  {
    OFFSET -3.266349 1.432579 -8.245727
    CHANNELS 3 Zrotation Xrotation Yrotation
    JOINT KneeLeft
    {
      OFFSET -5.719215 -26.338738 1.643865
      CHANNELS 3 Zrotation Xrotation Yrotation
      JOINT AnkleLeft
      {
        OFFSET -7.836672 -34.557108 4.502216
        CHANNELS 3 Zrotation Xrotation Yrotation
        JOINT FootLeft
        {
          OFFSET 2.419197 -7.642170 2.405702
          CHANNELS 3 Zrotation Xrotation Yrotation
          End Site
          {
            OFFSET 0 0 0
          }
        }
      }
    }
  }
  JOINT HipRight
  {
    OFFSET 4.005366 -0.178309 1.490975
    CHANNELS 3 Zrotation Xrotation Yrotation
    JOINT KneeRight
    {
      OFFSET -7.159855 -29.563377 4.577149
      CHANNELS 3 Zrotation Xrotation Yrotation
      JOINT AnkleRight
      {
        OFFSET -7.967947 -30.146934 5.129383
        CHANNELS 3 Zrotation Xrotation Yrotation
        JOINT FootRight
        {
          OFFSET 0.935027 -7.806757 -4.551200
          CHANNELS 3 Zrotation Xrotation Yrotation
          End Site
          {
            OFFSET 0 0 0
          }
        }
      }
    }
  }
}
MOTION
Frames: 10
Frame Time: 0.033333
-40.428047 68.849871 362.368108 0.000000 0.000000 -53.246316 -0.000000 -0.000000 53.246316 -0.000000 0.000000 0.000000 -0.000000 0.000000 0.000000 0.000000 0.000000 0.000000 -0.000000 0.000000 0.000000 -0.000000 0.000000 0.000000 -0.000000 0.000000 0.000000 -0.000000 0.000000 0.000000 0.000000 0.000000 0.000000 0.000000 0.000000 0.000000 -0.000000 0.000000 0.000000 -0.000000 0.000000 0.000000 -0.000000 0.000000 0.000000 -0.000000 0.000000 0.000000 0.000000 0.000000 0.000000 0.000000 0.000000 0.000000 -0.000000 -0.000000 53.246316 -0.000000 0.000000 0.000000 -0.000000 0.000000 0.000000 0.000000 0.000000 0.000000 -0.000000 -0.000000 53.246316 -0.000000 0.000000 0.000000 -0.000000 0.000000 0.000000 0.000000 0.000000 0.000000
-40.453037 68.837989 362.330554 -0.060072 0.148714 -52.715940 0.154713 -0.042290 52.716075 -0.000000 0.000000 0.000000 -0.000000 0.000000 0.000000 0.000000 0.000000 0.000000 -0.000000 0.000000 0.000000 -0.000000 0.000000 0.000000 0.192151 -1.800231 -0.039647 0.538130 2.604355 0.002121 0.000000 0.000000 0.000000 0.000000 0.000000 0.000000 -0.000000 0.000000 0.000000 3.770698 0.477562 0.295366 5.448810 -1.217131 -0.272283 -2.615184 -1.572379 -0.325919 0.000000 0.000000 0.000000 0.000000 0.000000 0.000000 0.154713 -0.042290 52.716075 -0.000000 0.000000 0.000000 3.988677 9.042257 3.861060 0.000000 0.000000 0.000000 5.692031 1.308504 54.217344 -6.898010 5.634610 -2.148038 4.458893 7.042125 0.803950 0.000000 0.000000 0.000000
-40.475590 68.821200 362.265877 -0.103157 0.283621 -52.265228 0.287436 -0.091995 52.265715 -0.000000 0.000000 0.000000 -0.000000 0.000000 0.000000 0.000000 0.000000 0.000000 -0.000000 0.000000 0.000000 -0.000000 0.000000 0.000000 0.437653 -3.270737 -0.061525 0.919025 4.842110 -0.032812 0.000000 0.000000 0.000000 0.000000 0.000000 0.000000 -0.000000 0.000000 0.000000 7.953930 1.294472 0.573535 10.284314 -2.091887 -0.444277 -5.192532 -1.710062 -0.930258 0.000000 0.000000 0.000000 0.000000 0.000000 0.000000 0.287436 -0.091995 52.265715 0.716836 -0.636739 0.241942 6.681594 17.885066 6.555134 0.000000 0.000000 0.000000 10.904334 2.499355 55.047650 -12.501400 10.516808 -3.389501 7.663892 13.010959 1.186196 0.000000 0.000000 0.000000
-40.495705 68.799504 362.174075 -0.129343 0.404851 -51.901095 0.398405 -0.148013 51.902067 -0.000000 0.000000 0.000000 0.390299 0.793482 -0.329433 0.000000 0.000000 0.000000 -0.000000 0.000000 0.000000 -0.000000 0.000000 0.000000 0.736323 -4.381044 -0.065089 1.140133 6.677305 -0.082829 0.000000 0.000000 0.000000 0.000000 0.000000 0.000000 -0.000000 0.000000 0.000000 12.619536 2.485289 0.790390 14.043807 -2.531235 -0.622554 -7.427838 -0.462755 -2.117597 0.000000 0.000000 0.000000 0.000000 0.000000 0.000000 0.398405 -0.148013 51.902067 0.953092 -0.847101 0.323623 9.167460 24.632132 8.527037 0.000000 0.000000 0.000000 15.229592 3.447612 55.687114 -16.815322 14.408322 -4.002922 9.957394 17.587481 1.261907 0.000000 0.000000 0.000000
-40.513384 68.772899 362.055149 -0.138694 0.512518 -51.629322 0.487916 -0.209401 51.630834 -0.000000 0.000000 0.000000 0.601591 0.869599 -0.415199 0.000000 0.000000 0.000000 -0.000000 0.000000 0.000000 -0.000000 0.000000 0.000000 1.086430 -5.109765 -0.051371 1.199578 8.084223 -0.129953 0.000000 0.000000 0.000000 0.000000 0.000000 0.000000 -0.000000 0.000000 0.000000 17.833153 4.082958 0.883819 16.405896 -2.506565 -0.942168 -9.123503 2.050312 -4.125807 0.000000 0.000000 0.000000 0.000000 0.000000 0.000000 0.487916 -0.209401 51.630834 1.109820 -0.988012 0.378631 11.126170 29.238063 9.719727 0.000000 0.000000 0.000000 18.342228 4.045382 56.119040 -19.736387 17.112478 -4.232015 11.559105 20.754953 1.113337 0.000000 0.000000 0.000000
-40.528626 68.741388 361.909098 -0.131257 0.606720 -51.454363 0.556319 -0.275405 51.456395 -0.000000 0.000000 0.000000 0.852816 0.850606 -0.488072 0.000000 0.000000 0.000000 -0.000000 0.000000 0.000000 -0.000000 0.000000 0.000000 1.484659 -5.444470 -0.022984 1.097267 9.047020 -0.161414 0.000000 0.000000 0.000000 0.000000 0.000000 0.000000 1.216830 -0.138550 0.284717 22.462515 6.126879 0.452612 17.214209 -2.028340 -1.548594 -10.235456 5.558850 -7.044822 0.000000 0.000000 0.000000 0.000000 0.000000 0.000000 0.556319 -0.275405 51.456395 1.188068 -1.060796 0.406822 12.616668 31.625775 10.273172 0.000000 0.000000 0.000000 20.030862 4.221084 56.344656 -21.147930 18.503347 -4.273446 12.595257 22.597367 0.790874 0.000000 0.000000 0.000000
-40.537464 68.700712 361.712892 -0.105417 0.726987 -51.416956 0.634043 -0.370969 51.419677 -0.000000 0.000000 0.000000 1.322861 0.751775 -0.607110 0.000000 0.000000 0.000000 -0.000000 0.000000 0.000000 -0.000000 0.000000 0.000000 2.082627 -4.790542 0.035266 0.846280 9.452582 -0.182223 0.000000 0.000000 0.000000 0.000000 0.000000 0.000000 2.014787 0.420691 0.494653 30.319927 8.081269 0.102988 13.809993 -4.126383 -1.384030 -8.012219 15.924018 -14.017515 0.000000 0.000000 0.000000 0.000000 0.000000 0.000000 0.634043 -0.370969 51.419677 1.180845 -0.940097 0.377210 17.100164 29.313155 9.880760 0.000000 0.000000 0.000000 22.738085 4.625414 56.935297 -23.612558 21.011023 -4.283186 10.861232 18.863067 2.376171 0.000000 0.000000 0.000000
-40.529547 68.659228 361.527296 -0.035183 0.736082 -51.540283 0.598280 -0.430259 51.542755 -0.000000 0.000000 0.000000 1.692272 0.552762 -0.666678 0.000000 0.000000 0.000000 -0.000000 0.000000 0.000000 -0.000000 0.000000 0.000000 2.098629 -3.354237 0.050365 0.340576 8.170918 -0.071406 0.000000 0.000000 0.000000 0.000000 0.000000 0.000000 3.444996 0.143111 0.824353 36.753739 11.020115 -1.245616 9.281546 1.151681 -5.512632 -8.165854 15.371696 -16.087805 0.000000 0.000000 0.000000 0.000000 0.000000 0.000000 1.365645 -0.733180 51.736916 0.896982 -0.162711 0.172912 16.231028 35.466359 11.176378 0.000000 0.000000 0.000000 22.059604 4.025515 57.028550 -22.604969 20.615198 -4.272706 10.448139 18.228981 2.406093 0.000000 0.000000 0.000000
-40.522124 68.610921 361.282359 0.043913 0.738514 -51.847016 0.553626 -0.490751 51.849104 -0.000000 0.000000 0.000000 1.822789 0.024915 -0.559831 0.000000 0.000000 0.000000 -0.000000 0.000000 0.000000 -0.000000 0.000000 0.000000 2.341146 -2.918885 0.070256 1.244608 7.872683 -0.289499 0.000000 0.000000 0.000000 0.000000 0.000000 0.000000 5.253760 -0.815630 1.246245 41.621283 15.382838 -3.988616 7.958183 4.455062 -8.776061 -9.255388 14.679233 -18.346477 0.000000 0.000000 0.000000 0.000000 0.000000 0.000000 1.435048 -0.910195 52.080012 0.990151 0.082057 0.124637 14.236890 34.442345 11.075749 0.000000 0.000000 0.000000 17.810599 2.620990 56.467737 -17.998731 16.421699 -4.034377 10.702811 18.297235 0.841734 0.000000 0.000000 0.000000
-40.565504 68.581997 361.102905 0.079537 0.751607 -51.966357 0.543012 -0.525724 51.968327 -0.000000 0.000000 0.000000 1.963686 -0.060928 -0.578714 0.000000 0.000000 0.000000 -0.000000 0.000000 0.000000 -0.000000 0.000000 0.000000 3.401223 -2.787465 0.138687 0.326386 8.621593 -0.295919 0.000000 0.000000 0.000000 0.000000 0.000000 0.000000 7.246820 -2.043651 1.745615 44.683472 19.024362 -7.081122 8.425548 6.167786 -10.939390 -10.010794 13.943914 -20.339560 0.000000 0.000000 0.000000 0.000000 0.000000 0.000000 1.939294 -1.070025 52.326335 0.208490 0.222701 0.015403 10.763584 23.789423 8.183247 0.000000 0.000000 0.000000 14.964762 1.449944 55.978710 -14.735918 14.172903 -3.792377 24.488493 22.171611 -8.952483 0.000000 0.000000 0.000000
